<svg width="53" height="53" viewBox="0 0 53 53" fill="none" xmlns="http://www.w3.org/2000/svg">
<g clip-path="url(#clip0_2011_4)">
<path d="M7.23419e-09 11.5938C7.23419e-09 10.276 0.523492 9.01213 1.45531 8.08031C2.38713 7.14849 3.65096 6.625 4.96875 6.625H34.7812C36.099 6.625 37.3629 7.14849 38.2947 8.08031C39.2265 9.01213 39.75 10.276 39.75 11.5938V16.5625H43.1288C43.8732 16.5632 44.608 16.7311 45.2788 17.0539C45.9496 17.3767 46.5393 17.8461 47.0044 18.4274L51.9102 24.5556C52.616 25.4373 53.0004 26.5332 53 27.6627V34.7812C53 36.099 52.4765 37.3629 51.5447 38.2947C50.6129 39.2265 49.349 39.75 48.0312 39.75H46.375C46.375 41.5071 45.677 43.1922 44.4346 44.4346C43.1922 45.677 41.5071 46.375 39.75 46.375C37.9929 46.375 36.3078 45.677 35.0654 44.4346C33.823 43.1922 33.125 41.5071 33.125 39.75H16.5625C16.5644 40.6331 16.3898 41.5076 16.0488 42.3222C15.7079 43.1368 15.2075 43.875 14.5771 44.4934C13.9468 45.1118 13.1992 45.598 12.3782 45.9233C11.5573 46.2486 10.6796 46.4066 9.7967 46.3878C8.91383 46.369 8.04363 46.1739 7.23725 45.814C6.43087 45.4541 5.70458 44.9366 5.10108 44.2919C4.49758 43.6473 4.02905 42.8885 3.72303 42.0601C3.41702 41.2318 3.27969 40.3506 3.31912 39.4684C2.34872 39.1269 1.50826 38.4926 0.913734 37.653C0.319211 36.8134 -5.54909e-05 35.81 7.23419e-09 34.7812L7.23419e-09 11.5938ZM4.28638 36.2918C4.88591 35.312 5.72986 34.505 6.7354 33.9499C7.74094 33.3948 8.87352 33.1107 10.022 33.1254C11.1705 33.1401 12.2955 33.4531 13.2865 34.0338C14.2775 34.6144 15.1005 35.4428 15.6747 36.4375H34.0127C34.5942 35.4305 35.4305 34.5942 36.4375 34.0127V11.5938C36.4375 11.1545 36.263 10.7332 35.9524 10.4226C35.6418 10.112 35.2205 9.9375 34.7812 9.9375H4.96875C4.52949 9.9375 4.10821 10.112 3.7976 10.4226C3.487 10.7332 3.3125 11.1545 3.3125 11.5938V34.7812C3.31224 35.1 3.40399 35.4121 3.57674 35.6801C3.74949 35.948 3.99589 36.1604 4.28638 36.2918ZM39.75 33.125C40.9129 33.125 42.0553 33.4312 43.0624 34.0126C44.0695 34.5941 44.9058 35.4304 45.4873 36.4375H48.0312C48.4705 36.4375 48.8918 36.263 49.2024 35.9524C49.513 35.6418 49.6875 35.2205 49.6875 34.7812V27.6594C49.6868 27.2835 49.5583 26.9191 49.3231 26.6259L44.4206 20.4978C44.2657 20.3038 44.0692 20.1471 43.8456 20.0393C43.622 19.9315 43.377 19.8754 43.1288 19.875H39.75V33.125ZM9.9375 36.4375C9.05897 36.4375 8.21642 36.7865 7.59521 37.4077C6.97399 38.0289 6.625 38.8715 6.625 39.75C6.625 40.6285 6.97399 41.4711 7.59521 42.0923C8.21642 42.7135 9.05897 43.0625 9.9375 43.0625C10.816 43.0625 11.6586 42.7135 12.2798 42.0923C12.901 41.4711 13.25 40.6285 13.25 39.75C13.25 38.8715 12.901 38.0289 12.2798 37.4077C11.6586 36.7865 10.816 36.4375 9.9375 36.4375ZM39.75 36.4375C38.8715 36.4375 38.0289 36.7865 37.4077 37.4077C36.7865 38.0289 36.4375 38.8715 36.4375 39.75C36.4375 40.6285 36.7865 41.4711 37.4077 42.0923C38.0289 42.7135 38.8715 43.0625 39.75 43.0625C40.6285 43.0625 41.4711 42.7135 42.0923 42.0923C42.7135 41.4711 43.0625 40.6285 43.0625 39.75C43.0625 38.8715 42.7135 38.0289 42.0923 37.4077C41.4711 36.7865 40.6285 36.4375 39.75 36.4375Z" fill="white"/>
</g>
<defs>
<clipPath id="clip0_2011_4">
<rect width="53" height="53" fill="white"/>
</clipPath>
</defs>
</svg>
