<svg width="56" height="56" viewBox="0 0 56 56" fill="none" xmlns="http://www.w3.org/2000/svg">
<g clip-path="url(#clip0_119_44)">
<path d="M55.1758 27.1758C54.9773 26.5173 54.6236 25.916 54.1445 25.4226C53.7792 25.0276 53.3096 24.744 52.79 24.6044C53.0444 25.0066 53.2748 25.4707 53.4466 25.9657C53.6415 26.4722 53.7595 27.0074 53.8007 27.5711C53.8582 28.0553 53.8582 28.5446 53.8007 29.0287C53.6938 28.6698 53.5289 28.3307 53.3126 28.0249C52.886 27.4503 52.3174 26.9966 51.6625 26.7083C50.9362 26.3829 50.1154 26.3369 49.3573 26.5793C48.5992 26.8216 47.9573 27.3351 47.5544 28.0215C47.3825 28.3034 47.245 28.6082 47.1419 28.9359C43.0785 22.1705 35.7665 17.6912 27.406 17.6912C26.9797 17.6912 26.5569 17.7026 26.1375 17.7255C23.5436 17.7296 20.9628 18.0917 18.4679 18.8015C18.2548 17.3096 16.2953 14.2844 7.28848 14.2844L10.0386 22.913C8.30889 24.3105 6.85508 26.0185 5.75182 27.9493L0.413052 28.0352C0.413052 28.0352 -0.171359 41.7861 3.85076 41.7861H5.70713C6.9728 43.9269 8.66334 45.7859 10.6746 47.2486L10.7262 55.5369H14.4389C18.9423 55.5369 21.0393 55.5369 21.0393 52.9586V51.6179C24.5071 52.2569 28.0634 52.2476 31.5278 51.5904L31.3525 52.9586C31.3525 55.5369 33.4838 55.5369 38.0216 55.5369H41.6656V47.3208C44.887 45.0837 47.2062 41.7725 48.2076 37.9805C48.4035 37.8877 48.5995 37.898 48.7989 37.898C48.9982 37.898 49.1942 37.8877 49.3901 37.8637C50.253 37.7055 51.0402 37.3686 51.7244 36.8908C52.6489 36.2367 53.3566 35.3207 53.756 34.2609C53.8523 33.9401 53.9245 33.6055 53.9726 33.2571L53.9761 33.2227C54.7358 32.3221 55.2549 31.1945 55.4165 29.9535C55.5539 29.0051 55.4691 28.0377 55.1689 27.1277L55.1758 27.1758ZM12.4794 27.1758C13.1632 27.1758 13.819 27.4474 14.3025 27.931C14.7861 28.4145 15.0577 29.0703 15.0577 29.7541C15.0577 30.4379 14.7861 31.0937 14.3025 31.5772C13.819 32.0607 13.1632 32.3324 12.4794 32.3324C11.7956 32.3324 11.1398 32.0607 10.6563 31.5772C10.1728 31.0937 9.90114 30.4379 9.90114 29.7541C9.90114 29.0703 10.1728 28.4145 10.6563 27.931C11.1398 27.4474 11.7956 27.1758 12.4794 27.1758ZM20.6268 24.5975C20.2386 24.7235 19.8183 24.7072 19.4411 24.5516C19.0638 24.3961 18.7542 24.1113 18.5676 23.7484C18.5091 23.568 18.4896 23.3773 18.5102 23.1888C18.5309 23.0003 18.5913 22.8184 18.6875 22.655C18.7837 22.4915 18.9134 22.3504 19.0681 22.2408C19.2229 22.1312 19.3991 22.0557 19.5852 22.0192C21.8461 21.4762 24.1667 21.2221 26.4915 21.2629L26.8387 21.2595C29.1535 21.2641 31.3868 21.5299 33.5389 22.057C33.972 22.1396 34.4395 22.6827 34.4395 23.3359C34.4385 23.4748 34.4165 23.6127 34.3742 23.745C34.2545 23.9683 34.0849 24.1611 33.8786 24.3084C33.6723 24.4556 33.4349 24.5534 33.1848 24.5941H32.6588C30.7383 24.1317 28.7694 23.9009 26.7941 23.9065H26.4881C24.4083 23.9065 22.3869 24.1575 20.4515 24.6319L20.6268 24.5975ZM50.5349 34.67C50.069 35.0038 49.5386 35.2367 48.9776 35.3541L48.541 35.3576V33.845C49.1083 34.2747 49.8267 34.5325 50.6037 34.5325H50.6759L50.5349 34.67ZM50.8099 32.3324C50.4904 32.3771 50.1649 32.3186 49.881 32.1652C49.5971 32.0118 49.3697 31.7716 49.232 31.4798C49.0724 31.1802 48.9893 30.8459 48.9899 30.5065C48.9905 30.1671 49.0748 29.8331 49.2354 29.5341C49.3979 29.3066 49.6386 29.1471 49.9114 29.0862C50.1842 29.0253 50.4699 29.0673 50.7137 29.2041C51.0252 29.3236 51.2931 29.5348 51.4821 29.8097C51.6712 30.0847 51.7724 30.4105 51.7725 30.7441C51.8384 31.2209 51.8373 31.7081 51.769 32.1845C51.4496 32.2449 51.1245 32.2703 50.7996 32.2602L50.8099 32.3324ZM27.9148 10.8467H24.477V10.2623H25.3365V6.51515H24.477L26.3678 4.6244H27.0553V10.2623H27.9148V10.8467Z" fill="white"/>
<path d="M26.1959 3.11184C26.8733 3.11206 27.5441 3.24571 28.1698 3.50515C28.7956 3.76458 29.3641 4.14473 29.8429 4.62388C30.3217 5.10303 30.7015 5.6718 30.9605 6.29772C31.2195 6.92364 31.3527 7.59445 31.3525 8.27185C31.3523 8.94924 31.2186 9.61996 30.9592 10.2457C30.6998 10.8715 30.3196 11.44 29.8405 11.9188C29.3613 12.3976 28.7925 12.7774 28.1666 13.0364C27.5407 13.2954 26.8699 13.4286 26.1925 13.4284C24.8244 13.428 23.5126 12.8841 22.5455 11.9164C21.5785 10.9487 21.0355 9.63647 21.0359 8.26841C21.0364 6.90034 21.5803 5.58849 22.548 4.62145C23.5157 3.65441 24.8279 3.11138 26.1959 3.11184ZM26.1959 0.533554C24.1445 0.533554 22.1771 1.34847 20.7266 2.79904C19.276 4.24961 18.4611 6.217 18.4611 8.26841C18.4611 10.3198 19.276 12.2872 20.7266 13.7378C22.1771 15.1883 24.1445 16.0033 26.1959 16.0033C28.2474 16.0033 30.2147 15.1883 31.6653 13.7378C33.1159 12.2872 33.9308 10.3198 33.9308 8.26841C33.9308 6.217 33.1159 4.24961 31.6653 2.79904C30.2147 1.34847 28.2474 0.533554 26.1959 0.533554Z" fill="white"/>
</g>
<defs>
<clipPath id="clip0_119_44">
<rect width="55.0034" height="55.0034" fill="white" transform="translate(0.413116 0.533554)"/>
</clipPath>
</defs>
</svg>
