<svg width="62" height="44" viewBox="0 0 62 44" fill="none" xmlns="http://www.w3.org/2000/svg">
<path d="M30.2708 4.21336L30.2431 4.19491L27.804 2.55548C26.1297 1.42938 24.1324 0.883114 22.1181 1.00033C20.1037 1.11755 18.1833 1.89179 16.651 3.20449L10.6623 8.33808C10.244 8.69577 9.71162 8.89214 9.16126 8.89173H2.35748C1.74566 8.89173 1.15889 9.13478 0.726269 9.5674C0.293644 10 0.0505981 10.5868 0.0505981 11.1986V29.746C0.0505981 31.0194 1.08408 32.0529 2.35748 32.0529H8.77986C9.10742 32.0527 9.43128 32.1223 9.72986 32.257C10.0285 32.3917 10.2949 32.5884 10.5116 32.8341L17.706 41.0159C18.8259 42.2888 20.3742 43.1063 22.057 43.3132C23.7398 43.5202 25.4401 43.1022 26.8351 42.1386L28.939 40.6837L31.1966 41.4527C32.5918 41.9258 34.1015 41.9413 35.5061 41.4971C36.9106 41.0529 38.1368 40.172 39.0062 38.9828L40.4519 37.0081L41.4546 37.1434C42.8433 37.3305 44.2561 37.0916 45.5062 36.4584C46.7562 35.8251 47.7846 34.8273 48.4552 33.5969L48.6059 33.3201H59.2607C59.8725 33.3201 60.4593 33.0771 60.8919 32.6444C61.3245 32.2118 61.5676 31.6251 61.5676 31.0132V11.2017C61.5676 10.5899 61.3245 10.0031 60.8919 9.57048C60.4593 9.13785 59.8725 8.89481 59.2607 8.89481H52.46C51.9067 8.89497 51.3718 8.6963 50.9528 8.335L45.7577 3.84734C43.5907 1.97486 40.8046 0.975505 37.9415 1.04373C35.0784 1.11195 32.3431 2.24287 30.2677 4.21644M25.2233 6.38491L26.952 7.54758L20.9233 13.6101C20.2736 14.2635 19.7609 15.0401 19.4153 15.8943C19.0697 16.7485 18.8982 17.6631 18.9108 18.5845C18.9234 19.5059 19.1199 20.4155 19.4887 21.2599C19.8575 22.1043 20.3913 22.8666 21.0586 23.502L21.2678 23.6989C23.7592 26.0703 27.6102 26.2549 30.3139 24.1295L36.7086 19.1097L44.8811 26.9685C45.2462 27.3191 45.4858 27.78 45.5631 28.2803C45.6404 28.7806 45.551 29.2923 45.3086 29.7368L45.2317 29.8721L45.1887 29.9521L44.4043 31.3885C44.1808 31.7981 43.8382 32.1302 43.422 32.3411C43.0057 32.5519 42.5353 32.6316 42.0728 32.5696L39.7075 32.2528C39.2965 32.1975 38.8782 32.254 38.4966 32.4164C38.1149 32.5788 37.7842 32.841 37.539 33.1756L35.2814 36.2575C34.9918 36.6539 34.5833 36.9476 34.1153 37.0959C33.6473 37.2441 33.1442 37.2392 32.6792 37.0819L29.3265 35.9438C28.9855 35.8278 28.622 35.7932 28.2652 35.8429C27.9084 35.8925 27.5682 36.0251 27.2719 36.2299L24.2145 38.343C23.7492 38.6646 23.1819 38.8041 22.6205 38.7349C22.0591 38.6658 21.5427 38.3927 21.1694 37.9677L13.975 29.786C13.325 29.0479 12.5252 28.4568 11.6289 28.0521C10.7325 27.6475 9.76024 27.4385 8.77678 27.4391H4.66437V13.5055H9.15818C10.8097 13.5059 12.4068 12.9157 13.6612 11.8415L19.653 6.70788C20.419 6.0513 21.3791 5.6639 22.3863 5.60501C23.3935 5.54613 24.3922 5.819 25.2295 6.38184M50.2054 28.7094C50.2165 27.7644 50.0339 26.827 49.6689 25.9552C49.3039 25.0834 48.7642 24.2956 48.083 23.6404L40.3288 16.1846C40.6769 15.7409 40.8503 15.1851 40.8164 14.6222C40.7825 14.0593 40.5437 13.5283 40.1449 13.1296C39.7462 12.7309 39.2152 12.492 38.6523 12.4581C38.0895 12.4242 37.5337 12.5977 37.09 12.9457L35.5336 14.1668L35.349 14.3114L27.4687 20.5031C27.0324 20.8458 26.4872 21.0199 25.9331 20.9934C25.3789 20.9668 24.8528 20.7414 24.4513 20.3585L24.2421 20.1586C24.0196 19.9468 23.8416 19.6928 23.7186 19.4114C23.5956 19.1299 23.53 18.8267 23.5257 18.5196C23.5214 18.2125 23.5785 17.9076 23.6936 17.6228C23.8087 17.338 23.9795 17.0791 24.196 16.8613L33.3159 7.69522C34.551 6.45355 36.2109 5.7263 37.9609 5.66009C39.711 5.59388 41.4211 6.19363 42.7464 7.33843L47.9354 11.823C49.1936 12.9094 50.8008 13.5066 52.4631 13.5055H56.9538V28.7094H50.2054Z" fill="white"/>
</svg>
